<svg width="60" height="60" viewBox="0 0 60 60" fill="none" xmlns="http://www.w3.org/2000/svg">
<g clip-path="url(#clip0)">
<path d="M59.89 14.2278C59.6835 13.4598 59.1797 12.8052 58.4904 12.4083C57.8006 12.0094 56.9804 11.9015 56.211 12.108C55.4426 12.315 54.7879 12.8183 54.391 13.5077L53.8911 14.3776C53.4161 14.1047 52.8092 14.2654 52.5314 14.7379L49.9918 19.0668L49.1219 18.5669C48.8914 18.4336 48.6171 18.3975 48.3603 18.4668C48.103 18.5366 47.8843 18.7055 47.752 18.9369C47.481 19.4149 47.646 20.0222 48.122 20.2966L48.992 20.7965L40.4935 35.5239L38.3937 41.1333L37.3939 43.0026C36.8085 44.021 36.871 45.2869 37.554 46.2423L35.3044 49.0016L34.6746 47.4223C34.3905 46.7183 33.7329 46.236 32.9767 46.1769C32.22 46.1174 31.495 46.4913 31.1049 47.1421L30.7451 47.7518L30.4053 43.7525C30.3272 42.8064 29.5944 42.0458 28.6522 41.9315C27.7095 41.8178 26.8171 42.3826 26.5159 43.2829L24.0563 50.6615C23.8845 51.1834 24.1657 51.7458 24.6861 51.9215C24.7837 51.9669 24.8887 51.9943 24.9961 52.0011C25.4257 52.0026 25.8085 51.7287 25.9461 51.3215L28.3954 43.9429L28.7455 48.0018C28.8177 48.8679 29.4402 49.588 30.2867 49.7842C31.1332 49.9805 32.0091 49.6075 32.4548 48.862L32.8248 48.2518L33.4448 49.8218C33.708 50.4833 34.3031 50.9554 35.0076 51.0604C35.712 51.1653 36.419 50.8875 36.8642 50.3315L39.1939 47.3823C39.4516 47.4496 39.7172 47.4833 39.9838 47.4824C41.0554 47.4907 42.0503 46.9263 42.5932 46.0021L43.593 44.3325L47.4024 39.7034L55.9908 24.7958L56.8608 25.2957C57.0927 25.4285 57.2616 25.6477 57.3304 25.906C57.3997 26.1623 57.3636 26.4356 57.2308 26.6656L53.2315 33.5946C53.0807 33.8221 53.0294 34.1013 53.0899 34.3679C53.1505 34.634 53.317 34.8639 53.5513 35.004C53.7817 35.1378 54.0561 35.1739 54.3129 35.1046C54.5702 35.0348 54.7889 34.8659 54.9212 34.6344L58.9205 27.7055C59.3193 27.0156 59.4272 26.1955 59.2202 25.4261C59.0132 24.6576 58.5099 24.003 57.8206 23.6061L56.9506 23.1061L59.4502 18.7768C59.7231 18.3018 59.5625 17.6954 59.0904 17.4172L59.5903 16.5472C59.9999 15.8466 60.1083 15.0099 59.89 14.2278ZM56.1207 14.5075C56.253 14.2761 56.4727 14.1067 56.7309 14.0379C56.9877 13.9744 57.2591 14.01 57.4906 14.1379C57.7225 14.2702 57.8914 14.4899 57.9607 14.7477C58.0242 15.0045 57.9885 15.2759 57.8606 15.5073L57.3607 16.3773L55.6208 15.3775L56.1207 14.5075ZM42.4931 42.4232L41.9932 42.1332L40.5135 41.273L41.9331 37.4738L45.0825 39.2933L42.4931 42.4232ZM39.4936 45.3123C39.0713 45.0179 38.9415 44.4516 39.1939 44.0025L39.6938 43.133L41.4332 44.1328L40.9333 44.9925C40.7932 45.2357 40.5579 45.4085 40.284 45.4695C40.0101 45.53 39.7236 45.4734 39.4936 45.3123ZM46.2225 37.654L42.7631 35.6543L50.7617 21.7963L54.2211 23.796L46.2225 37.654ZM55.2209 22.0663L51.7616 20.0666L53.7612 16.6072L57.2206 18.6069L55.2209 22.0663Z" fill="#E46B2D"/>
<path d="M15.7775 44.8124L12.2386 48.3421L10.1188 46.2223C9.72878 45.8347 9.099 45.8347 8.70893 46.2223C8.51951 46.4103 8.41309 46.6656 8.41309 46.9322C8.41309 47.1987 8.51951 47.4545 8.70893 47.642L10.8287 49.7618C11.2036 50.1338 11.7104 50.3422 12.2386 50.3417C12.7698 50.3447 13.2809 50.1362 13.6583 49.7618L17.1875 46.2223C17.5272 45.8254 17.5043 45.2342 17.1352 44.8651C16.7657 44.4956 16.1745 44.4726 15.7775 44.8124Z" fill="#E46B2D"/>
<path d="M3.99902 47.5019C3.99902 52.1959 7.80404 56.0005 12.4976 56.0005C17.1911 56.0005 20.9961 52.1959 20.9961 47.5019C20.9961 46.9497 20.5485 46.5021 19.9963 46.5021C19.4441 46.5021 18.9965 46.9497 18.9965 47.5019C18.9965 51.0911 16.0868 54.0008 12.4976 54.0008C8.90834 54.0008 5.99868 51.0911 5.99868 47.5019C5.99868 43.9127 8.90834 41.003 12.4976 41.003C13.9046 40.9991 15.274 41.4556 16.3968 42.3031C16.8386 42.6346 17.4655 42.5447 17.7965 42.1029C18.128 41.6611 18.0386 41.0347 17.5968 40.7033C15.0216 38.7719 11.5759 38.4614 8.69695 39.9007C5.81756 41.3403 3.99902 44.2832 3.99902 47.5019Z" fill="#E46B2D"/>
<path d="M35.9935 8.0086C36.5456 8.0086 36.9933 7.56141 36.9933 7.00877C36.9933 6.45662 36.5456 6.00894 35.9935 6.00894H9.99788C9.44572 6.00894 8.99805 6.45662 8.99805 7.00877V11.0081C8.99805 11.5607 9.44572 12.0079 9.99788 12.0079H35.9935C36.5456 12.0079 36.9933 11.5607 36.9933 11.0081C36.9933 10.4559 36.5456 10.0083 35.9935 10.0083H10.9977V8.0086H35.9935Z" fill="#E46B2D"/>
<path d="M12.9979 14.0076C12.4457 14.0076 11.998 14.4553 11.998 15.0075C11.998 15.5601 12.4457 16.0073 12.9979 16.0073H32.9945C33.5466 16.0073 33.9943 15.5601 33.9943 15.0075C33.9943 14.4553 33.5466 14.0076 32.9945 14.0076H12.9979Z" fill="#E46B2D"/>
<path d="M38.9932 21.0064H16.9969C16.4447 21.0064 15.9971 21.4541 15.9971 22.0062C15.9971 22.5589 16.4447 23.0061 16.9969 23.0061H38.9932C39.5453 23.0061 39.993 22.5589 39.993 22.0062C39.993 21.4541 39.5453 21.0064 38.9932 21.0064Z" fill="#E46B2D"/>
<path d="M28.9953 28.0052C28.9953 27.4531 28.5476 27.0054 27.9954 27.0054H7.99885C7.4467 27.0054 6.99902 27.4531 6.99902 28.0052C6.99902 28.5579 7.4467 29.0051 7.99885 29.0051H27.9954C28.5476 29.0051 28.9953 28.5579 28.9953 28.0052Z" fill="#E46B2D"/>
<path d="M38.9938 27.0054H31.9949C31.4428 27.0054 30.9951 27.4531 30.9951 28.0052C30.9951 28.5579 31.4428 29.0051 31.9949 29.0051H38.9938C39.5459 29.0051 39.9936 28.5579 39.9936 28.0052C39.9936 27.4531 39.5459 27.0054 38.9938 27.0054Z" fill="#E46B2D"/>
<path d="M17.9971 34.0042C18.5493 34.0042 18.997 33.557 18.997 33.0044C18.997 32.4522 18.5493 32.0045 17.9971 32.0045H7.99885C7.4467 32.0045 6.99902 32.4522 6.99902 33.0044C6.99902 33.557 7.4467 34.0042 7.99885 34.0042H17.9971Z" fill="#E46B2D"/>
<path d="M21.9959 34.0042H28.9947C29.5469 34.0042 29.9946 33.557 29.9946 33.0044C29.9946 32.4522 29.5469 32.0045 28.9947 32.0045H21.9959C21.4438 32.0045 20.9961 32.4522 20.9961 33.0044C20.9961 33.557 21.4438 34.0042 21.9959 34.0042Z" fill="#E46B2D"/>
<path d="M44.9923 46.0021C44.4402 46.0021 43.9925 46.4498 43.9925 47.002V57.0003C43.9925 57.5529 43.5448 58.0001 42.9927 58.0001H2.99949C2.44734 58.0001 1.99966 57.5529 1.99966 57.0003V3.00947C1.99966 2.45732 2.44734 2.00964 2.99949 2.00964H42.9927C43.5448 2.00964 43.9925 2.45732 43.9925 3.00947V21.7865C43.9925 22.3387 44.4402 22.7864 44.9923 22.7864C45.5445 22.7864 45.9922 22.3387 45.9922 21.7865V3.00947C45.9922 1.35301 44.6491 0.00997925 42.9927 0.00997925H2.99949C1.34303 0.00997925 0 1.35301 0 3.00947V57.0003C0 58.6572 1.34303 59.9998 2.99949 59.9998H42.9927C44.6491 59.9998 45.9922 58.6572 45.9922 57.0003V47.002C45.9922 46.4498 45.5445 46.0021 44.9923 46.0021Z" fill="#E46B2D"/>
</g>
<defs>
<clipPath id="clip0">
<rect width="60" height="60" fill="white"/>
</clipPath>
</defs>
</svg>
