<svg width="40" height="40" viewBox="0 0 40 40" fill="none" xmlns="http://www.w3.org/2000/svg">
<g clip-path="url(#clip0)">
<path d="M39.7006 17.1359C39.2859 16.5097 38.6572 16.0782 37.9263 15.9146C38.3978 15.0128 38.3786 13.8876 37.778 12.9809C37.3507 12.3355 36.7062 11.9186 36.0046 11.7608C36.1297 11.5222 36.2222 11.2646 36.2774 10.993C36.4306 10.2377 36.2811 9.46806 35.8554 8.82566C35.4406 8.19913 34.812 7.76762 34.0811 7.60435C34.5526 6.70255 34.5334 5.57737 33.9328 4.67038C33.0548 3.34439 31.2609 2.97971 29.9347 3.85801L27.0629 5.75986C25.5322 4.9835 23.9041 4.43265 22.2143 4.11893C21.6803 3.30808 21.0592 2.55429 20.364 1.88047L19.176 0.729037C18.3059 -0.11447 16.9415 -0.241118 15.9313 0.428133C14.7363 1.21945 14.4079 2.83567 15.1992 4.03074C15.2304 4.07804 15.2609 4.12565 15.2911 4.17325C11.3967 4.96122 7.84754 7.02787 5.22058 10.0561C2.36994 13.3426 0.799805 17.5516 0.799805 21.9076C0.799805 22.7426 0.856873 23.5791 0.969788 24.3933C1.83984 30.723 6.05616 36.1777 11.9729 38.6291C14.1671 39.5386 16.4953 40 18.8919 40C22.6873 40 26.3205 38.8376 29.3988 36.6388C32.4102 34.4873 34.6634 31.5182 35.9149 28.0527C36.0318 27.7298 35.8642 27.373 35.5413 27.2565C35.2182 27.1399 34.8617 27.3071 34.7451 27.6303C33.5797 30.8575 31.481 33.6224 28.6755 35.6265C25.8096 37.6739 22.4264 38.7561 18.8919 38.7561C17.0645 38.7561 15.2801 38.4677 13.5723 37.8989L18.6328 34.5477C18.6331 34.5474 18.6334 34.5474 18.6337 34.5471C18.634 34.5471 18.634 34.5468 18.6343 34.5465L22.8399 31.7615H22.8402C23.2177 31.5112 23.4756 31.1291 23.5659 30.6851C23.6563 30.2411 23.5684 29.7882 23.3181 29.4107L23.2626 29.3265L24.0795 28.7854C24.6624 28.3993 25.3634 28.248 26.0537 28.3588C27.0532 28.5193 28.0682 28.2996 28.9117 27.7408L35.6878 23.2535C35.6414 23.8412 35.5652 24.4256 35.4586 25.0003C35.3958 25.3381 35.6189 25.6628 35.9567 25.7254C35.9948 25.7327 36.0333 25.7361 36.0708 25.7361C36.3647 25.7361 36.6259 25.5267 36.6815 25.2273C36.8539 24.2999 36.9531 23.3499 36.9787 22.3987L38.8882 21.134C39.5306 20.7086 39.9691 20.0583 40.1223 19.3033C40.2758 18.548 40.126 17.7783 39.7006 17.1359ZM25.8554 6.55942L23.955 7.81797L23.5809 6.80997C23.4246 6.38944 23.2455 5.97715 23.0471 5.57371C24.0112 5.81815 24.9499 6.14774 25.8554 6.55942ZM6.16022 10.8713C8.68494 7.96079 12.124 6.00431 15.8862 5.3259C16.4898 6.78831 16.6345 8.42222 16.2738 9.97953L14.7573 16.5307C14.519 16.2762 14.2095 16.1008 13.861 16.03C13.4167 15.9393 12.9641 16.0275 12.5866 16.2778L8.29127 19.122C8.29096 19.122 8.29096 19.122 8.29066 19.1223C8.29066 19.1223 8.29035 19.1223 8.29035 19.1226L2.09528 23.2251C2.0614 22.7881 2.0437 22.3477 2.0437 21.9076C2.0437 17.8512 3.5058 13.9316 6.16022 10.8713ZM22.3471 30.437C22.323 30.5554 22.254 30.6576 22.153 30.7245H22.1533L18.4594 33.1705L11.6036 22.9462C11.4123 22.6608 11.0259 22.5848 10.7406 22.7762C10.4556 22.9675 10.3793 23.3536 10.5706 23.6389L17.4221 33.8574L12.149 37.3495C6.90912 35.0577 3.15943 30.2176 2.25794 24.5856L8.46033 20.4916L9.17414 21.5567C9.29438 21.7355 9.49091 21.8323 9.69141 21.8323C9.81043 21.8323 9.93098 21.7984 10.0372 21.727C10.3225 21.5356 10.3988 21.1493 10.2075 20.8639L9.49854 19.8065L13.2736 17.3147C13.374 17.2479 13.4945 17.2247 13.6129 17.2488C13.7313 17.2729 13.8336 17.3419 13.9004 17.4426L22.2811 30.0976C22.3477 30.1981 22.3712 30.3186 22.3471 30.437ZM38.9035 19.0555C38.8162 19.4852 38.5669 19.855 38.2013 20.097L36.0183 21.5427C36.0177 21.543 36.0171 21.5436 36.0162 21.5439L28.2248 26.7038C27.6419 27.0898 26.9409 27.2415 26.2506 27.1304C25.2514 26.9702 24.2364 27.1896 23.3926 27.7484L22.5756 28.2895L15.7116 17.9248L17.4859 10.2603C17.9428 8.2858 17.702 6.20603 16.8316 4.3942C16.8237 4.37528 16.8151 4.35697 16.8054 4.33896C16.6381 3.99656 16.4483 3.66422 16.2362 3.34378C15.8236 2.72062 15.9948 1.87802 16.6183 1.46512C17.145 1.1163 17.8567 1.18222 18.3102 1.62198L19.4982 2.77372C20.7833 4.01975 21.7919 5.56516 22.4145 7.24302L23.0615 8.98588C23.0627 8.98923 23.0639 8.99198 23.0651 8.99503C23.0667 8.999 23.0685 9.00327 23.07 9.00724C23.0746 9.01792 23.0789 9.02769 23.0835 9.03593C23.096 9.06217 23.1097 9.08811 23.1262 9.11283C23.316 9.39939 23.7017 9.47782 23.988 9.288L30.6216 4.8953C31.376 4.39573 32.3962 4.60294 32.8958 5.35734C33.3954 6.11173 33.1881 7.13193 32.4337 7.63151L31.8579 8.01298C31.8579 8.01298 31.8576 8.01298 31.8573 8.01328L30.5728 8.86411C30.5709 8.86533 30.5697 8.86655 30.5679 8.86747C30.5606 8.87266 30.5536 8.87754 30.5478 8.88242C30.2822 9.07743 30.2136 9.44822 30.3976 9.72593C30.5871 10.0125 30.9732 10.0909 31.2597 9.9011L32.5451 9.04966C32.9104 8.80827 33.3477 8.72312 33.7771 8.8104C34.2065 8.89768 34.5767 9.14701 34.8184 9.51261C35.0604 9.87791 35.1458 10.3158 35.0586 10.7452C34.9713 11.1749 34.722 11.5448 34.3563 11.7868L32.4954 13.0194C32.2088 13.2089 32.1304 13.5946 32.3202 13.8812C32.4398 14.0619 32.6376 14.1598 32.8393 14.1598C32.9571 14.1598 33.0764 14.1263 33.182 14.0564L33.4701 13.8656L34.4668 13.2055C35.2215 12.706 36.2414 12.9132 36.741 13.6676C37.2406 14.4223 37.0334 15.4422 36.279 15.9421L35.3494 16.5576C35.3445 16.5607 35.3396 16.564 35.3347 16.5674L34.418 17.1744C34.1314 17.3639 34.053 17.7499 34.2428 18.0365C34.3625 18.2171 34.5602 18.3151 34.7619 18.3151C34.8797 18.3151 34.9991 18.2815 35.1046 18.2117L35.3927 18.0209C35.3927 18.0209 35.3927 18.0206 35.393 18.0206L36.3897 17.3608C36.755 17.1188 37.1927 17.0334 37.6223 17.121C38.052 17.2079 38.4219 17.4576 38.6639 17.8229C38.9056 18.1882 38.9908 18.6261 38.9035 19.0555Z" fill="#E46B2D"/>
</g>
<defs>
<clipPath id="clip0">
<rect width="40" height="40" fill="white"/>
</clipPath>
</defs>
</svg>
