<svg width="60" height="60" viewBox="0 0 60 60" fill="none" xmlns="http://www.w3.org/2000/svg">
<path d="M55.6055 12.4219H42.3047V8.02734C42.3047 5.60414 40.3334 3.63281 37.9102 3.63281H22.0898C19.6666 3.63281 17.6953 5.60414 17.6953 8.02734V13.3008C17.6953 13.7863 18.0888 14.1797 18.5742 14.1797H55.6055C57.0593 14.1797 58.2422 15.3626 58.2422 16.8164V37.9102C58.2422 39.364 57.0593 40.5469 55.6055 40.5469H37.7578C37.8554 40.2716 37.9102 39.9763 37.9102 39.668C37.9102 38.5222 37.1753 37.5452 36.1523 37.1824V29.1211C36.1523 28.6356 35.7589 28.2422 35.2734 28.2422H24.7266C24.2412 28.2422 23.8477 28.6356 23.8477 29.1211V37.1824C22.8247 37.5452 22.0898 38.5222 22.0898 39.668C22.0898 39.9763 22.1446 40.2716 22.2422 40.5469H4.39453C2.94059 40.5469 1.75781 39.364 1.75781 37.9102V16.8164C1.75781 15.3626 2.94059 14.1797 4.39453 14.1797H15.0586C15.544 14.1797 15.9375 13.7863 15.9375 13.3008C15.9375 12.8153 15.544 12.4219 15.0586 12.4219H4.39453C1.97133 12.4219 0 14.3932 0 16.8164V37.9102C0 39.3448 0.691172 40.6208 1.75781 41.4234V51.9727C1.75781 54.3959 3.72914 56.3672 6.15234 56.3672H53.8477C56.2709 56.3672 58.2422 54.3959 58.2422 51.9727V41.4234C59.3088 40.6209 60 39.3449 60 37.9102V16.8164C60 14.3932 58.0287 12.4219 55.6055 12.4219ZM37.0312 12.4219H22.9688V10.6641H37.0312V12.4219ZM40.5469 12.4219H38.7891V9.78516C38.7891 9.29965 38.3957 8.90625 37.9102 8.90625H22.0898C21.6045 8.90625 21.2109 9.29965 21.2109 9.78516V12.4219H19.4531V8.02734C19.4531 6.57352 20.6359 5.39062 22.0898 5.39062H37.9102C39.364 5.39062 40.5469 6.57352 40.5469 8.02734V12.4219ZM34.3945 30V37.0312H25.6055V30H34.3945ZM23.8477 39.668C23.8477 39.1833 24.2419 38.7891 24.7266 38.7891H35.2734C35.7581 38.7891 36.1523 39.1833 36.1523 39.668C36.1523 40.1527 35.7581 40.5469 35.2734 40.5469H24.7266C24.2419 40.5469 23.8477 40.1527 23.8477 39.668ZM25.6055 42.3047H34.3945V46.6992C34.3945 49.1224 32.4232 51.0938 30 51.0938C27.5768 51.0938 25.6055 49.1224 25.6055 46.6992V42.3047ZM3.51562 51.9727V42.2162C3.79969 42.2741 4.09359 42.3047 4.39453 42.3047H8.78906V51.9727C8.78906 52.9613 9.1173 53.8744 9.67031 54.6094H6.15234C4.6984 54.6094 3.51562 53.4265 3.51562 51.9727ZM13.1836 54.6094C11.7296 54.6094 10.5469 53.4265 10.5469 51.9727V42.3047H23.8477V46.6992C23.8477 50.0916 26.6075 52.8516 30 52.8516C33.3923 52.8516 36.1523 50.0916 36.1523 46.6992V42.3047H49.4531V51.9727C49.4531 53.4265 48.2702 54.6094 46.8164 54.6094H13.1836ZM56.4844 51.9727C56.4844 53.4265 55.3015 54.6094 53.8477 54.6094H50.3297C50.8827 53.8744 51.2109 52.9613 51.2109 51.9727V42.3047H55.6055C55.9064 42.3047 56.2003 42.2741 56.4844 42.2162V51.9727Z" fill="#E46B2D"/>
<path d="M30 49.3359C31.4538 49.3359 32.6367 48.153 32.6367 46.6992C32.6367 45.2454 31.4538 44.0625 30 44.0625C28.5461 44.0625 27.3633 45.2454 27.3633 46.6992C27.3633 48.153 28.5461 49.3359 30 49.3359ZM30 45.8203C30.4847 45.8203 30.8789 46.2145 30.8789 46.6992C30.8789 47.1839 30.4847 47.5781 30 47.5781C29.5153 47.5781 29.1211 47.1839 29.1211 46.6992C29.1211 46.2145 29.5153 45.8203 30 45.8203Z" fill="#E46B2D"/>
</svg>
